<?xml version="1.0"?>
<svg xmlns="http://www.w3.org/2000/svg" id="Capa_1" enable-background="new 0 0 511.999 511.999" height="512px" viewBox="0 0 511.999 511.999" width="512px"><g><g><path d="m220.901 319.833h264.616c14.602 0 26.481-11.88 26.481-26.482 0-7.582-6.042-13.765-13.562-14.025 1.057-2.678 1.644-5.591 1.644-8.64v-24.78c0-4.142-3.357-7.5-7.5-7.5s-7.5 3.358-7.5 7.5v24.78c0 4.75-3.865 8.616-8.616 8.616h-117.24c-4.75 0-8.615-3.865-8.615-8.616 0-17.73 0-66.197 0-84.561 0-4.73 3.873-8.616 8.616-8.616h117.239c4.751 0 8.616 3.865 8.616 8.616v24.78c0 4.142 3.357 7.5 7.5 7.5s7.5-3.358 7.5-7.5v-24.78c0-13.022-10.594-23.616-23.616-23.616h-117.238c-.391 0-.78.011-1.167.03l-.001-4.969c13.664-9.787 22.593-25.783 22.593-43.834v-22.72c5.238-2.589 8.857-7.973 8.857-14.201v-35.315c0-12.809-11.074-22.162-22.548-21.291-.385.032-.814-.104-.867-.37-2.573-13.164-11.156-19.839-25.51-19.839h-46.403c-21.139 0-38.336 17.197-38.336 38.336v33.842c0 9.631 6.69 17.709 15.661 19.886v21.671c0 16.559 8.071 33.473 22.566 43.831v7.71l-59.896 23.394c-.042.016-.084.033-.125.05-13.771 5.667-28.592 21.876-28.592 44.075v71.595c0 8.515 6.928 15.443 15.443 15.443zm114.708-132.127c-2.894.738-5.871 1.11-8.899 1.11-10.251 0-19.402-3.549-26.174-9.961 1.643-.642 2.403-.865 3.357-1.511 3.339-2.264 5.178-5.741 5.178-9.791v-2.544c10.479 3.282 22.762 3.673 33.987.1l.001 2.494c.001.42.025.838.07 1.251-5.69 5.3-7.52 11.596-7.52 18.852zm161.351 106.596c-.484 5.888-5.432 10.531-11.442 10.531h-135.345c-6.026 0-10.961-4.673-11.443-10.531zm-220.632-216.64c-3.024 0-5.484-2.46-5.484-5.484v-33.842c0-12.868 10.468-23.336 23.336-23.336h46.403c8.635 0 9.878 3.056 10.79 7.717 1.508 7.714 8.696 13.058 16.738 12.448 2.88-.231 6.397 2.415 6.397 6.334v35.315c0 2.268-9.27-.003-9.27-7.577 0-8.636-11.59-11.519-15.654-3.939-.001.003-.003.005-.005.008-4.074 7.621-11.963 12.354-20.587 12.354-11.417.002-43.05.002-52.664.002zm10.177 36.073v-21.073h42.488c9.604 0 18.745-3.635 25.617-9.812 2.727 3.807 6.569 6.759 11.041 8.392v22.493c0 21.577-17.594 38.901-38.901 38.901-25.11 0-40.245-19.698-40.245-38.901zm-66.047 119.059c0-16.293 11.484-26.959 19.241-30.18l45.877-17.918c9.769 12.221 24.433 19.119 41.134 19.119 3.007 0 5.978-.273 8.899-.789v67.66c0 3.024.605 6.01 1.63 8.625-10.332.364-17.823 11.25-10.946 25.522h-64.739c0-7.746 0-64.137 0-72.293 0-4.142-3.357-7.5-7.5-7.5s-7.5 3.358-7.5 7.5v19.92h-26.096zm0 34.666h26.096v37.373h-25.652c-.244 0-.443-.199-.443-.443v-36.93z" data-original="#000000" class="active-path" data-old_color="#000000" fill="#FFFFFF"/><path d="m413.129 220.905c-4.143 0-7.5 3.358-7.5 7.5s3.357 7.5 7.5 7.5h9.432c4.143 0 7.5-3.358 7.5-7.5s-3.357-7.5-7.5-7.5z" data-original="#000000" class="active-path" data-old_color="#000000" fill="#FFFFFF"/><path d="m15.443 511.999h178.89c4.143 0 7.5-3.358 7.5-7.5s-3.357-7.5-7.5-7.5h-49.619c-6.061 0-10.963-4.704-11.443-10.531h158.231c-.484 5.888-5.432 10.531-11.443 10.531h-50.726c-4.143 0-7.5 3.358-7.5 7.5s3.357 7.5 7.5 7.5h50.726c14.603 0 26.482-11.88 26.482-26.482 0-7.583-6.043-13.766-13.563-14.025 1.057-2.678 1.644-5.591 1.644-8.64v-84.561c0-13.022-10.594-23.616-23.615-23.616h-117.24c-.391 0-.78.011-1.167.03l-.001-4.97c13.665-9.787 22.594-25.783 22.594-43.835v-22.719c5.238-2.589 8.857-7.973 8.857-14.2v-35.315c0-12.801-11.073-22.165-22.549-21.29-.373.034-.814-.104-.867-.37-2.574-13.165-11.157-19.839-25.511-19.839h-46.401c-21.139 0-38.336 17.197-38.336 38.336v33.842c0 9.631 6.69 17.709 15.661 19.886v21.67c0 16.558 8.071 33.472 22.565 43.83v7.711l-59.896 23.394c-.042.016-.084.033-.126.05-13.77 5.666-28.59 21.876-28.59 44.074v71.595c0 8.516 6.928 15.444 15.443 15.444zm114.707-132.127c-2.893.738-5.871 1.11-8.898 1.11-10.251 0-19.402-3.549-26.174-9.961 1.63-.637 2.401-.863 3.359-1.513 3.338-2.265 5.176-5.741 5.176-9.79v-2.544c10.716 3.358 23.105 3.565 33.987.1l.001 2.494c.001.42.025.838.07 1.251-5.652 5.271-7.521 11.579-7.521 18.853zm23.617-10.196h117.24c4.75 0 8.615 3.865 8.615 8.616v84.561c0 4.75-3.865 8.616-8.615 8.616h-117.24c-4.751 0-8.616-3.865-8.616-8.616 0-17.73 0-66.197 0-84.561-.001-4.778 3.915-8.616 8.616-8.616zm-82.898-99.848c-3.023 0-5.483-2.46-5.483-5.483v-33.842c0-12.868 10.469-23.336 23.336-23.336h46.402c8.635 0 9.878 3.056 10.79 7.72 1.511 7.713 8.721 13.061 16.738 12.446 2.918-.222 6.398 2.44 6.398 6.334v35.315c0 2.281-9.271-.011-9.271-7.577 0-8.799-11.645-11.434-15.658-3.931-4.074 7.62-11.963 12.354-20.588 12.354-11.417 0-43.045 0-52.664 0zm10.178 36.073v-21.073h42.487c9.6 0 18.747-3.629 25.617-9.812 2.728 3.807 6.57 6.759 11.042 8.392v22.493c0 21.764-18.276 40.625-42.496 38.75-22.611-1.73-36.65-20.141-36.65-38.75zm-66.047 119.059c0-16.293 11.485-26.959 19.242-30.18l45.875-17.917c9.77 12.221 24.435 19.118 41.134 19.118 3.007 0 5.977-.273 8.898-.789v67.66c0 3.046.604 6.007 1.631 8.625-2.404.085-5.077.869-7.34 2.388-.003.003-.008.005-.011.007-7.891 5.309-7.261 15.519-3.596 23.127h-64.738c0-7.746 0-64.137 0-72.293 0-4.142-3.357-7.5-7.5-7.5s-7.5 3.358-7.5 7.5v19.92h-26.095zm0 34.666h26.095v37.373h-25.652c-.244 0-.443-.199-.443-.443z" data-original="#000000" class="active-path" data-old_color="#000000" fill="#FFFFFF"/><path d="m207.67 428.072h9.433c4.143 0 7.5-3.358 7.5-7.5s-3.357-7.5-7.5-7.5h-9.433c-4.143 0-7.5 3.358-7.5 7.5s3.357 7.5 7.5 7.5z" data-original="#000000" class="active-path" data-old_color="#000000" fill="#FFFFFF"/><path d="m76.081 177.509c4.143 0 7.5-3.358 7.5-7.5v-86.428h147.309c4.143 0 7.5-3.358 7.5-7.5s-3.357-7.5-7.5-7.5h-154.809c-4.143 0-7.5 3.358-7.5 7.5v93.929c0 4.141 3.357 7.499 7.5 7.499z" data-original="#000000" class="active-path" data-old_color="#000000" fill="#FFFFFF"/><path d="m435.919 335.316c-4.143 0-7.5 3.358-7.5 7.5v85.603h-107.371c-4.143 0-7.5 3.358-7.5 7.5s3.357 7.5 7.5 7.5h114.871c4.143 0 7.5-3.358 7.5-7.5v-93.103c0-4.142-3.357-7.5-7.5-7.5z" data-original="#000000" class="active-path" data-old_color="#000000" fill="#FFFFFF"/></g></g> </svg>
