<?xml version="1.0"?>
<svg xmlns="http://www.w3.org/2000/svg" id="Layer_1" enable-background="new 0 0 511.991 511.991" height="512px" viewBox="0 0 511.991 511.991" width="512px"><g><g><g><path d="m225.186 461.991c0 5.523 4.478 10 10 10h41.613c5.522 0 10-4.477 10-10s-4.478-10-10-10h-41.613c-5.522 0-10 4.477-10 10z" data-original="#000000" class="active-path" data-old_color="#000000" fill="#FFFFFF"/><path d="m419.026 111.986c-5.795-8.246-14.453-13.741-24.356-15.47l-70.653-12.516-34.989-64.364c-.001-.001-.002-.003-.003-.004-3.522-6.474-8.83-11.733-15.348-15.21-18.312-9.765-41.158-2.815-50.93 15.503l-33.733 63.324-71.054 13.205c-7.673 1.191-14.69 4.672-20.308 10.074-7.252 6.976-11.354 16.359-11.549 26.421s3.539 19.597 10.523 26.857l49.834 51.686-9.23 70.378c-1.583 8.097-.51 16.293 3.111 23.728 4.412 9.061 12.089 15.861 21.616 19.149 4.033 1.392 8.193 2.083 12.338 2.083 5.645 0 11.262-1.283 16.485-3.827l14.687-7.149c4.3 6.721 9.843 12.437 16.253 16.896-9.875 32.292-31.985 79.241-61.728 79.241h-24c-5.043 0-9.297 3.755-9.923 8.76l-10 80c-.355 2.846.527 5.708 2.426 7.858s4.629 3.382 7.497 3.382h260c2.868 0 5.599-1.231 7.497-3.382s2.781-5.012 2.426-7.858l-10-80c-.626-5.004-4.88-8.76-9.923-8.76h-24c-29.747 0-51.865-46.985-61.733-79.26 6.364-4.426 11.878-10.088 16.167-16.735l15.005 7.148c6.616 3.159 14.02 4.289 21.396 3.267 20.584-2.847 35.014-21.91 32.165-42.508l-9.935-71.094 49.094-51.783c5.908-5.608 9.769-12.813 11.172-20.857 1.733-9.928-.503-19.937-6.297-28.183zm-20.786 7.135-63.167 20.524c-4.739-10.203-11.374-19.353-19.455-26.992l6.327-8.708 69.261 12.269c2.615.456 4.985 1.483 7.034 2.907zm-52.792 97.88 9.733 69.656c.356 2.57.123 5.083-.571 7.422l-38.947-53.605c8.036-7.607 14.64-16.711 19.367-26.858zm-90.234 27.582c-37.494 0-67.998-30.504-67.998-67.998 0-37.495 30.504-67.999 67.998-67.999 37.495 0 67.999 30.504 67.999 67.999 0 37.494-30.503 67.998-67.999 67.998zm-97.36 51.188c-1.335-3.258-1.674-6.776-.958-10.25.049-.237.089-.476.12-.716l9.079-69.226 8.875-2.884c5.122 11.337 12.581 21.398 21.754 29.575zm113.605-266.578 34.271 63.044-6.106 8.405c-10.321-6.059-21.979-10.072-34.415-11.485v-66.54c2.624 1.614 4.774 3.866 6.25 6.576zm-31.062.14c1.22-2.287 2.878-4.191 4.812-5.675v65.5c-11.513 1.309-22.359 4.844-32.094 10.17l-5.772-7.945zm-119.281 86.871c.114-.017.229-.036.342-.058l69.739-12.96 5.574 7.673c-9.219 8.207-16.709 18.315-21.84 29.708l-62.609-20.343c2.51-2.141 5.526-3.529 8.794-4.02zm-10.083 29.729c-1.779-1.849-3.09-4.021-3.919-6.371l61.749 20.063c-1.076 5.49-1.646 11.159-1.646 16.96 0 5.835.576 11.538 1.665 17.059l-9.022 2.931zm70.993 159.088c-2.366 1.152-4.905 1.733-7.461 1.775l38.496-52.986c9.749 5.343 20.614 8.889 32.148 10.2v10.256zm128.119 106.97h-9.155c-5.522 0-10 4.477-10 10s4.478 10 10 10h66.175l7.5 60h-237.344l7.5-60h66.169c5.522 0 10-4.477 10-10s-4.478-10-10-10h-9.145c20.102-20.824 32.427-52.835 38.135-70.674 5.135 1.418 10.509 2.174 16.012 2.174 5.495 0 10.87-.761 16.01-2.186 5.7 17.814 18.029 49.849 38.143 70.686zm-54.152-88.501c-12.997 0-24.937-6.258-32.36-16.478l31.623-15.392 32.893 15.669c-7.449 10.047-19.323 16.201-32.156 16.201zm74.047-18.398-64.831-30.884v-10.196c12.458-1.415 24.134-5.44 34.468-11.516l39.385 54.209c-3.144.259-6.243-.286-9.022-1.613zm69.792-158.032-48.259 50.902-10.225-3.322c1.22-5.83 1.866-11.868 1.866-18.055 0-6.152-.637-12.157-1.844-17.956l64.014-20.8c-.809 3.384-2.557 6.411-5.118 8.8-.149.139-.295.283-.434.431z" data-original="#000000" class="active-path" data-old_color="#000000" fill="#FFFFFF"/><path d="m266.301 206.584h-1.087v-69.999c0-3.573-1.906-6.874-5-8.66-3.094-1.787-6.906-1.786-10 0l-11.087 6.401c-4.783 2.761-6.422 8.877-3.66 13.66 2.045 3.541 5.927 5.361 9.747 4.943v53.654h-1.087c-5.522 0-10 4.477-10 10s4.478 10 10 10h22.174c5.522 0 10-4.477 10-10s-4.477-9.999-10-9.999z" data-original="#000000" class="active-path" data-old_color="#000000" fill="#FFFFFF"/><path d="m255.986 411.991c-5.522 0-9.996 4.477-9.996 10s4.48 10 10.003 10 10-4.477 10-10-4.478-10-10-10z" data-original="#000000" class="active-path" data-old_color="#000000" fill="#FFFFFF"/></g></g></g> </svg>
